<mxfile host="app.diagrams.net" modified="2022-11-08T07:52:08.384Z" agent="5.0 (Macintosh; Intel Mac OS X 10_15_7) AppleWebKit/537.36 (KHTML, like Gecko) Chrome/107.0.0.0 Safari/537.36" etag="IAAC98BXaSr8WTtEa9z4" version="20.5.1" type="github">
  <diagram name="Page-1" id="90a13364-a465-7bf4-72fc-28e22215d7a0">
    <mxGraphModel dx="2066" dy="1072" grid="1" gridSize="10" guides="1" tooltips="1" connect="1" arrows="1" fold="1" page="1" pageScale="1.5" pageWidth="1169" pageHeight="826" background="none" math="0" shadow="0">
      <root>
        <mxCell id="0" style=";html=1;" />
        <mxCell id="1" style=";html=1;" parent="0" />
        <mxCell id="tS6Wf3RPKrL3y0VOueRz-22" value="" style="group" parent="1" vertex="1" connectable="0">
          <mxGeometry width="580" height="430" as="geometry" />
        </mxCell>
        <mxCell id="tS6Wf3RPKrL3y0VOueRz-1" value="" style="rounded=0;whiteSpace=wrap;html=1;" parent="tS6Wf3RPKrL3y0VOueRz-22" vertex="1">
          <mxGeometry y="120" width="360" height="310" as="geometry" />
        </mxCell>
        <mxCell id="3a17f1ce550125da-4" value="&lt;font style=&quot;font-size: 14px;&quot;&gt;File Fortification Service&lt;/font&gt;" style="whiteSpace=wrap;html=1;shadow=1;fontSize=18;fillColor=#f5f5f5;strokeColor=#666666;" parent="tS6Wf3RPKrL3y0VOueRz-22" vertex="1">
          <mxGeometry x="410" y="150" width="170" height="60" as="geometry" />
        </mxCell>
        <mxCell id="tS6Wf3RPKrL3y0VOueRz-3" value="User" style="shape=umlActor;verticalLabelPosition=bottom;verticalAlign=top;html=1;outlineConnect=0;" parent="tS6Wf3RPKrL3y0VOueRz-22" vertex="1">
          <mxGeometry x="180" width="30" height="60" as="geometry" />
        </mxCell>
        <mxCell id="tS6Wf3RPKrL3y0VOueRz-6" value="" style="group" parent="tS6Wf3RPKrL3y0VOueRz-22" vertex="1" connectable="0">
          <mxGeometry x="71" y="160" width="218" height="110" as="geometry" />
        </mxCell>
        <mxCell id="3a17f1ce550125da-2" value="" style="whiteSpace=wrap;html=1;shadow=1;fontSize=18;fillColor=#f5f5f5;strokeColor=#666666;" parent="tS6Wf3RPKrL3y0VOueRz-6" vertex="1">
          <mxGeometry width="210" height="110" as="geometry" />
        </mxCell>
        <mxCell id="tS6Wf3RPKrL3y0VOueRz-5" value="&lt;font style=&quot;font-size: 14px;&quot;&gt;Attachment Service&lt;/font&gt;" style="text;html=1;align=center;verticalAlign=middle;resizable=0;points=[];autosize=1;strokeColor=none;fillColor=none;" parent="tS6Wf3RPKrL3y0VOueRz-6" vertex="1">
          <mxGeometry width="140" height="30" as="geometry" />
        </mxCell>
        <mxCell id="tS6Wf3RPKrL3y0VOueRz-7" value="File Fortification Client" style="rounded=0;whiteSpace=wrap;html=1;dashed=1;" parent="tS6Wf3RPKrL3y0VOueRz-6" vertex="1">
          <mxGeometry x="18" y="50" width="172" height="40" as="geometry" />
        </mxCell>
        <mxCell id="tS6Wf3RPKrL3y0VOueRz-10" style="edgeStyle=orthogonalEdgeStyle;rounded=0;orthogonalLoop=1;jettySize=auto;html=1;entryX=0.886;entryY=0;entryDx=0;entryDy=0;entryPerimeter=0;fontSize=14;" parent="tS6Wf3RPKrL3y0VOueRz-22" source="tS6Wf3RPKrL3y0VOueRz-3" target="tS6Wf3RPKrL3y0VOueRz-5" edge="1">
          <mxGeometry relative="1" as="geometry" />
        </mxCell>
        <mxCell id="tS6Wf3RPKrL3y0VOueRz-8" value="&lt;font style=&quot;font-size: 14px;&quot;&gt;NFS Service&lt;/font&gt;" style="whiteSpace=wrap;html=1;shadow=1;fontSize=18;fillColor=#f5f5f5;strokeColor=#666666;" parent="tS6Wf3RPKrL3y0VOueRz-22" vertex="1">
          <mxGeometry x="410" y="230" width="170" height="60" as="geometry" />
        </mxCell>
        <mxCell id="tS6Wf3RPKrL3y0VOueRz-9" value="Seller-app" style="text;html=1;align=center;verticalAlign=middle;resizable=0;points=[];autosize=1;strokeColor=none;fillColor=none;fontSize=14;" parent="tS6Wf3RPKrL3y0VOueRz-22" vertex="1">
          <mxGeometry y="120" width="90" height="30" as="geometry" />
        </mxCell>
        <mxCell id="tS6Wf3RPKrL3y0VOueRz-11" style="edgeStyle=orthogonalEdgeStyle;rounded=0;orthogonalLoop=1;jettySize=auto;html=1;exitX=1;exitY=0.25;exitDx=0;exitDy=0;fontSize=14;" parent="tS6Wf3RPKrL3y0VOueRz-22" source="3a17f1ce550125da-2" edge="1">
          <mxGeometry relative="1" as="geometry">
            <mxPoint x="410" y="188" as="targetPoint" />
          </mxGeometry>
        </mxCell>
        <mxCell id="tS6Wf3RPKrL3y0VOueRz-12" style="edgeStyle=orthogonalEdgeStyle;rounded=0;orthogonalLoop=1;jettySize=auto;html=1;exitX=1;exitY=0.75;exitDx=0;exitDy=0;fontSize=14;" parent="tS6Wf3RPKrL3y0VOueRz-22" source="3a17f1ce550125da-2" edge="1">
          <mxGeometry relative="1" as="geometry">
            <mxPoint x="410" y="243" as="targetPoint" />
          </mxGeometry>
        </mxCell>
        <mxCell id="tS6Wf3RPKrL3y0VOueRz-20" value="" style="group" parent="tS6Wf3RPKrL3y0VOueRz-22" vertex="1" connectable="0">
          <mxGeometry x="101" y="330" width="170" height="80" as="geometry" />
        </mxCell>
        <mxCell id="tS6Wf3RPKrL3y0VOueRz-13" value="" style="whiteSpace=wrap;html=1;shadow=1;fontSize=18;fillColor=#f5f5f5;strokeColor=#666666;" parent="tS6Wf3RPKrL3y0VOueRz-20" vertex="1">
          <mxGeometry width="150" height="60" as="geometry" />
        </mxCell>
        <mxCell id="tS6Wf3RPKrL3y0VOueRz-18" value="" style="whiteSpace=wrap;html=1;shadow=1;fontSize=18;fillColor=#f5f5f5;strokeColor=#666666;" parent="tS6Wf3RPKrL3y0VOueRz-20" vertex="1">
          <mxGeometry x="10" y="10" width="150" height="60" as="geometry" />
        </mxCell>
        <mxCell id="tS6Wf3RPKrL3y0VOueRz-19" value="&lt;font style=&quot;font-size: 14px;&quot;&gt;Consumer client&lt;/font&gt;" style="whiteSpace=wrap;html=1;shadow=1;fontSize=18;fillColor=#f5f5f5;strokeColor=#666666;" parent="tS6Wf3RPKrL3y0VOueRz-20" vertex="1">
          <mxGeometry x="20" y="20" width="150" height="60" as="geometry" />
        </mxCell>
        <mxCell id="tS6Wf3RPKrL3y0VOueRz-21" style="edgeStyle=orthogonalEdgeStyle;rounded=0;orthogonalLoop=1;jettySize=auto;html=1;fontSize=14;" parent="tS6Wf3RPKrL3y0VOueRz-22" edge="1">
          <mxGeometry relative="1" as="geometry">
            <mxPoint x="140" y="270" as="sourcePoint" />
            <mxPoint x="140" y="330" as="targetPoint" />
            <Array as="points">
              <mxPoint x="140" y="270" />
            </Array>
          </mxGeometry>
        </mxCell>
        <mxCell id="LSYERnEBYPrbZLxFqhfM-2" style="edgeStyle=orthogonalEdgeStyle;rounded=0;orthogonalLoop=1;jettySize=auto;html=1;fontSize=14;" parent="tS6Wf3RPKrL3y0VOueRz-22" edge="1">
          <mxGeometry relative="1" as="geometry">
            <mxPoint x="179.52" y="270" as="sourcePoint" />
            <mxPoint x="179.52" y="330" as="targetPoint" />
            <Array as="points">
              <mxPoint x="179.52" y="270" />
            </Array>
          </mxGeometry>
        </mxCell>
        <mxCell id="LSYERnEBYPrbZLxFqhfM-1" style="edgeStyle=orthogonalEdgeStyle;rounded=0;orthogonalLoop=1;jettySize=auto;html=1;fontSize=14;" parent="tS6Wf3RPKrL3y0VOueRz-22" edge="1">
          <mxGeometry relative="1" as="geometry">
            <mxPoint x="160" y="270" as="sourcePoint" />
            <mxPoint x="160" y="330" as="targetPoint" />
            <Array as="points">
              <mxPoint x="160" y="270" />
            </Array>
          </mxGeometry>
        </mxCell>
        <mxCell id="LSYERnEBYPrbZLxFqhfM-3" style="edgeStyle=orthogonalEdgeStyle;rounded=0;orthogonalLoop=1;jettySize=auto;html=1;fontSize=14;startArrow=classic;startFill=1;endArrow=none;endFill=0;" parent="tS6Wf3RPKrL3y0VOueRz-22" edge="1">
          <mxGeometry relative="1" as="geometry">
            <mxPoint x="199.99999999999997" y="270" as="sourcePoint" />
            <mxPoint x="199.99999999999997" y="330" as="targetPoint" />
            <Array as="points">
              <mxPoint x="200" y="270" />
            </Array>
          </mxGeometry>
        </mxCell>
        <mxCell id="LSYERnEBYPrbZLxFqhfM-4" style="edgeStyle=orthogonalEdgeStyle;rounded=0;orthogonalLoop=1;jettySize=auto;html=1;fontSize=14;startArrow=classic;startFill=1;endArrow=none;endFill=0;" parent="tS6Wf3RPKrL3y0VOueRz-22" edge="1">
          <mxGeometry relative="1" as="geometry">
            <mxPoint x="220" y="270" as="sourcePoint" />
            <mxPoint x="220" y="330" as="targetPoint" />
            <Array as="points">
              <mxPoint x="220" y="270" />
            </Array>
          </mxGeometry>
        </mxCell>
        <mxCell id="LSYERnEBYPrbZLxFqhfM-5" style="edgeStyle=orthogonalEdgeStyle;rounded=0;orthogonalLoop=1;jettySize=auto;html=1;fontSize=14;startArrow=classic;startFill=1;endArrow=none;endFill=0;" parent="tS6Wf3RPKrL3y0VOueRz-22" edge="1">
          <mxGeometry relative="1" as="geometry">
            <mxPoint x="240" y="270" as="sourcePoint" />
            <mxPoint x="240" y="330" as="targetPoint" />
            <Array as="points">
              <mxPoint x="240" y="270" />
            </Array>
          </mxGeometry>
        </mxCell>
      </root>
    </mxGraphModel>
  </diagram>
</mxfile>
